# xmcd CD database file generated by freedbAccess_ocx
#
# Track frame offsets:
#       150
#       17045
#       34880
#
# Disc length: 762 seconds
#
# Revision: 0
# Processed by: cddbd v1.4PL0 Copyright (c) Steve Scherf et al.
# Submitted via: CDnGo 1.95
#
DISCID=1c02f803
DTITLE=Dixie Chicks - Wide Open Spaces
DYEAR=1998
DGENRE=Country
TTITLE0=Wide Open Spaces
TTITLE1=Never Say Die
TTITLE2=Give It Up Or Let Me Go
EXTD=
EXTT0=
EXTT1=
EXTT2=
PLAYORDER=
